<svg width="17" height="12" viewBox="0 0 17 12" fill="none" xmlns="http://www.w3.org/2000/svg">
<g id="Group">
<path id="Vector" d="M1.83618 3.47083C1.97618 3.48805 2.11896 3.49777 2.26451 3.5C2.92285 3.5075 3.54702 3.35166 3.93118 3.08333C4.31535 2.81666 4.93952 2.66083 5.59785 2.66666C6.25618 2.66083 6.88035 2.81666 7.26452 3.08333C7.64868 3.35166 8.27285 3.5075 8.93118 3.5C9.58952 3.5075 10.2137 3.35166 10.5978 3.08333C10.982 2.81666 11.6062 2.66083 12.2645 2.66666C12.9228 2.66083 13.547 2.81666 13.9312 3.08333C14.3153 3.35166 14.9395 3.5075 15.5978 3.5C15.7401 3.49888 15.8798 3.48944 16.017 3.47166" stroke="black" stroke-linecap="round" stroke-linejoin="round"/>
<path id="Vector_2" d="M1.43115 1L2.86532 9.6075C2.93022 9.99666 3.13107 10.3502 3.43213 10.6052C3.7332 10.8601 4.11495 11 4.50949 11H13.3528C13.7474 11 14.1291 10.8601 14.4302 10.6052C14.7312 10.3502 14.9321 9.99666 14.997 9.6075L16.4312 1" stroke="black" stroke-linecap="round" stroke-linejoin="round"/>
</g>
</svg>
