<svg width="32" height="27" viewBox="0 0 32 27" fill="none" xmlns="http://www.w3.org/2000/svg">
<g id="Vector">
<path d="M10.9317 27C12.1739 27 13.1808 25.9926 13.1808 24.75C13.1808 23.5074 12.1739 22.5 10.9317 22.5C9.68963 22.5 8.6827 23.5074 8.6827 24.75C8.6827 25.9926 9.68963 27 10.9317 27Z" fill="white"/>
<path d="M26.6751 27C27.9172 27 28.9241 25.9926 28.9241 24.75C28.9241 23.5074 27.9172 22.5 26.6751 22.5C25.433 22.5 24.426 23.5074 24.426 24.75C24.426 25.9926 25.433 27 26.6751 27Z" fill="white"/>
<path d="M30.6671 3.99234C30.5092 3.79902 30.3101 3.64332 30.0845 3.53653C29.8589 3.42975 29.6123 3.37457 29.3627 3.375H7.97214L7.54131 0.929532C7.49537 0.669044 7.35915 0.433079 7.15658 0.263087C6.95402 0.0930939 6.69805 -5.5576e-05 6.43365 2.48767e-08H1.93556C1.63732 2.48767e-08 1.35129 0.118527 1.1404 0.329505C0.929511 0.540484 0.811035 0.826632 0.811035 1.125C0.811035 1.42337 0.929511 1.70952 1.1404 1.9205C1.35129 2.13147 1.63732 2.25 1.93556 2.25H5.49046L8.69957 20.4455C8.74551 20.706 8.88173 20.9419 9.08429 21.1119C9.28686 21.2819 9.54283 21.3751 9.80722 21.375H27.7996C28.0978 21.375 28.3839 21.2565 28.5948 21.0455C28.8057 20.8345 28.9241 20.5484 28.9241 20.25C28.9241 19.9516 28.8057 19.6655 28.5948 19.4545C28.3839 19.2435 28.0978 19.125 27.7996 19.125H10.7504L10.354 16.875H27.3385C27.7285 16.8745 28.1064 16.7392 28.4081 16.4921C28.7098 16.2449 28.917 15.901 28.9944 15.5187L31.0186 5.39367C31.0673 5.14864 31.0611 4.89582 31.0003 4.65348C30.9396 4.41114 30.8258 4.18533 30.6671 3.99234Z" fill="white"/>
</g>
</svg>
