<svg width="21" height="22" viewBox="0 0 21 22" fill="none" xmlns="http://www.w3.org/2000/svg">
<path id="Vector" d="M10.4211 11.579C10.093 11.579 9.81818 11.4678 9.59663 11.2455C9.37509 11.0232 9.26393 10.7484 9.26316 10.4211V1.1579C9.26316 0.829829 9.37432 0.555022 9.59663 0.333478C9.81895 0.111934 10.0938 0.000775923 10.4211 3.99274e-06C10.7484 -0.000767937 11.0235 0.11039 11.2466 0.333478C11.4697 0.556566 11.5805 0.831372 11.5789 1.1579V10.4211C11.5789 10.7491 11.4678 11.0243 11.2455 11.2466C11.0232 11.469 10.7484 11.5797 10.4211 11.579ZM10.4211 22C8.97368 22 7.61818 21.7252 6.35453 21.1756C5.09088 20.626 3.99088 19.883 3.05453 18.9466C2.11818 18.0103 1.37519 16.9103 0.825579 15.6466C0.275965 14.383 0.00077193 13.0271 0 11.579C0 10.4018 0.192982 9.25814 0.578947 8.14811C0.964912 7.03807 1.52456 6.02028 2.25789 5.09474C2.47018 4.82457 2.74035 4.6945 3.06842 4.70453C3.39649 4.71457 3.68597 4.84464 3.93684 5.09474C4.14912 5.30702 4.24561 5.56755 4.22632 5.87632C4.20702 6.18509 4.10088 6.47457 3.90789 6.74474C3.38684 7.43948 2.99123 8.20176 2.72105 9.03158C2.45088 9.86141 2.31579 10.7105 2.31579 11.579C2.31579 13.8368 3.10239 15.7524 4.67558 17.3256C6.24877 18.8988 8.16393 19.685 10.4211 19.6842C12.6782 19.6834 14.5937 18.8972 16.1677 17.3256C17.7416 15.7539 18.5279 13.8384 18.5263 11.579C18.5263 10.6912 18.3962 9.82744 18.1361 8.98758C17.876 8.14772 17.4657 7.38081 16.9053 6.68685C16.7123 6.43597 16.6061 6.16116 16.5868 5.86243C16.5675 5.56369 16.664 5.30779 16.8763 5.09474C17.1079 4.86316 17.3877 4.74274 17.7158 4.73348C18.0439 4.72421 18.314 4.84464 18.5263 5.09474C19.2789 6.02106 19.8533 7.03421 20.2493 8.13421C20.6453 9.23421 20.8429 10.3825 20.8421 11.579C20.8421 13.0263 20.5673 14.3822 20.0177 15.6466C19.4681 16.9111 18.7251 18.0111 17.7887 18.9466C16.8524 19.8822 15.7524 20.6252 14.4887 21.1756C13.2251 21.726 11.8692 22.0008 10.4211 22Z" fill="black"/>
</svg>
