<svg width="26" height="24" viewBox="0 0 26 24" fill="none" xmlns="http://www.w3.org/2000/svg">
<path id="Vector" d="M12.9966 20.0096L12.8679 20.1383L12.7264 20.0096C6.6141 14.4635 2.57358 10.7962 2.57358 7.07735C2.57358 4.50377 4.50377 2.57358 7.07735 2.57358C9.059 2.57358 10.9892 3.86037 11.6712 5.61041H14.0646C14.7466 3.86037 16.6768 2.57358 18.6585 2.57358C21.232 2.57358 23.1622 4.50377 23.1622 7.07735C23.1622 10.7962 19.1217 14.4635 12.9966 20.0096ZM18.6585 0C16.4194 0 14.2705 1.0423 12.8679 2.67652C11.4653 1.0423 9.31636 0 7.07735 0C3.11403 0 0 3.10116 0 7.07735C0 11.9285 4.37509 15.9047 11.0021 21.914L12.8679 23.6126L14.7337 21.914C21.3607 15.9047 25.7358 11.9285 25.7358 7.07735C25.7358 3.10116 22.6218 0 18.6585 0Z" fill="black"/>
</svg>
