<svg width="23" height="23" viewBox="0 0 23 23" fill="none" xmlns="http://www.w3.org/2000/svg">
<path id="Vector" d="M22.0139 15.7594L16.4702 13.2751C16.219 13.1675 15.945 13.1242 15.6729 13.1492C15.4007 13.1742 15.1392 13.2667 14.9118 13.4183C14.8887 13.4331 14.8668 13.4495 14.8461 13.4676L11.9487 15.9319C11.9186 15.9483 11.8852 15.9575 11.8509 15.9587C11.8167 15.9599 11.7827 15.9532 11.7515 15.939C9.88917 15.0401 7.95992 13.1225 7.0575 11.286C7.04247 11.2553 7.03466 11.2216 7.03466 11.1874C7.03466 11.1532 7.04247 11.1195 7.0575 11.0888L9.53008 8.15506C9.54782 8.13335 9.56428 8.11063 9.57937 8.087C9.72886 7.85875 9.81915 7.59687 9.8421 7.325C9.86505 7.05312 9.81992 6.77982 9.7108 6.52975L7.24408 0.995462C7.104 0.668767 6.86174 0.396317 6.55366 0.219002C6.24558 0.0416874 5.88831 -0.0309263 5.53545 0.012059C4.00194 0.213664 2.59431 0.966756 1.57559 2.1306C0.55688 3.29445 -0.00320096 4.78941 1.37622e-05 6.33612C1.37622e-05 15.5247 7.47526 23 16.6638 23C18.2105 23.003 19.7053 22.4428 20.8691 21.4241C22.0329 20.4054 22.786 18.9979 22.9879 17.4645C23.0308 17.1133 22.9591 16.7577 22.7837 16.4504C22.6082 16.1432 22.3382 15.9009 22.0139 15.7594ZM16.6638 21.5918C8.25213 21.5918 1.40822 14.7479 1.40822 6.33612C1.4043 5.13201 1.83891 3.96766 2.63084 3.06062C3.42277 2.15358 4.51785 1.56589 5.71148 1.40736H5.73847C5.78576 1.40825 5.83168 1.4234 5.87021 1.45083C5.90874 1.47826 5.93809 1.5167 5.9544 1.5611L8.4305 7.08951C8.44462 7.12025 8.45193 7.15367 8.45193 7.1875C8.45193 7.22132 8.44462 7.25475 8.4305 7.28549L5.95322 10.2263C5.93474 10.2473 5.91787 10.2697 5.90276 10.2932C5.74775 10.5298 5.65647 10.8025 5.63776 11.0848C5.61905 11.3671 5.67355 11.6494 5.79597 11.9044C6.83688 14.0355 8.9844 16.1666 11.139 17.2075C11.3955 17.3293 11.6792 17.3825 11.9624 17.3619C12.2456 17.3413 12.5186 17.2477 12.7549 17.0902C12.7772 17.0749 12.7995 17.0585 12.8206 17.0409L15.7168 14.5765C15.7454 14.5611 15.777 14.5521 15.8094 14.5501C15.8418 14.5481 15.8743 14.5531 15.9046 14.5648L21.4494 17.0491C21.4947 17.0684 21.5328 17.1014 21.5583 17.1436C21.5837 17.1857 21.5953 17.2347 21.5914 17.2838C21.4337 18.478 20.8466 19.5739 19.9397 20.3667C19.0329 21.1595 17.8684 21.595 16.6638 21.5918Z" fill="black"/>
</svg>
