<svg width="19" height="18" viewBox="0 0 19 18" fill="none" xmlns="http://www.w3.org/2000/svg">
<path id="Vector" d="M18.5533 4.61072L14.3198 0.378094C14.2004 0.25869 14.0587 0.163971 13.9027 0.0993486C13.7467 0.034726 13.5796 0.00146484 13.4107 0.00146484C13.2419 0.00146484 13.0747 0.034726 12.9187 0.0993486C12.7627 0.163971 12.621 0.25869 12.5016 0.378094L1.30778 11.5711C1.18838 11.6905 1.09366 11.8322 1.02904 11.9882C0.964413 12.1442 0.931152 12.3114 0.931152 12.4802C0.931152 12.6491 0.964413 12.8163 1.02904 12.9722C1.09366 13.1282 1.18838 13.27 1.30778 13.3893L5.54122 17.622C5.66059 17.7414 5.80232 17.8361 5.95831 17.9007C6.1143 17.9653 6.28149 17.9986 6.45033 17.9986C6.61917 17.9986 6.78636 17.9653 6.94235 17.9007C7.09834 17.8361 7.24007 17.7414 7.35945 17.622L18.5533 6.42896C18.6727 6.30958 18.7674 6.16785 18.832 6.01186C18.8966 5.85587 18.9299 5.68868 18.9299 5.51984C18.9299 5.351 18.8966 5.18381 18.832 5.02782C18.7674 4.87183 18.6727 4.7301 18.5533 4.61072ZM6.44993 16.7133L2.2173 12.4798L4.78837 9.90874L6.90469 12.0259C6.96441 12.0856 7.03531 12.133 7.11333 12.1653C7.19136 12.1976 7.27499 12.2142 7.35945 12.2142C7.4439 12.2142 7.52753 12.1976 7.60556 12.1653C7.68359 12.133 7.75449 12.0856 7.81421 12.0259C7.87393 11.9661 7.9213 11.8952 7.95362 11.8172C7.98594 11.7392 8.00257 11.6556 8.00257 11.5711C8.00257 11.4866 7.98594 11.403 7.95362 11.325C7.9213 11.247 7.87393 11.1761 7.81421 11.1163L5.69709 9.00003L7.35945 7.33767L9.47576 9.45479C9.59637 9.5754 9.75995 9.64316 9.93052 9.64316C10.1011 9.64316 10.2647 9.5754 10.3853 9.45479C10.5059 9.33418 10.5736 9.1706 10.5736 9.00003C10.5736 8.82946 10.5059 8.66588 10.3853 8.54527L8.26816 6.42896L9.93052 4.7666L12.0468 6.88371C12.1066 6.94343 12.1775 6.99081 12.2555 7.02313C12.3335 7.05545 12.4171 7.07208 12.5016 7.07208C12.5861 7.07208 12.6697 7.05545 12.7477 7.02313C12.8257 6.99081 12.8966 6.94343 12.9564 6.88371C13.0161 6.82399 13.0634 6.7531 13.0958 6.67507C13.1281 6.59704 13.1447 6.51341 13.1447 6.42896C13.1447 6.3445 13.1281 6.26087 13.0958 6.18284C13.0634 6.10481 13.0161 6.03392 12.9564 5.9742L10.8392 3.85788L13.4103 1.28681L17.6437 5.52024L6.44993 16.7133Z" fill="black" fill-opacity="0.7"/>
</svg>
