<svg width="25" height="27" viewBox="0 0 25 27" fill="none" xmlns="http://www.w3.org/2000/svg">
<path id="Vector" d="M14.8383 0.972229C15.0297 0.972235 15.2161 1.03298 15.3708 1.14571C15.5254 1.25844 15.6403 1.41735 15.6988 1.59954L16.6931 4.68909C17.1107 4.89338 17.5103 5.12297 17.8917 5.38149L21.0662 4.69813C21.2534 4.65817 21.4484 4.67865 21.6232 4.75662C21.798 4.83459 21.9435 4.96603 22.0388 5.13201L24.5445 9.46895C24.6402 9.63483 24.6807 9.82681 24.6602 10.0172C24.6397 10.2076 24.5593 10.3866 24.4306 10.5283L22.2522 12.9327C22.2839 13.3938 22.2839 13.8565 22.2522 14.3175L24.4306 16.7255C24.5593 16.8673 24.6397 17.0462 24.6602 17.2366C24.6807 17.427 24.6402 17.619 24.5445 17.7849L22.0388 22.1236C21.9433 22.2893 21.7976 22.4204 21.6229 22.498C21.4481 22.5756 21.2532 22.5958 21.0662 22.5557L17.8917 21.8724C17.5121 22.1291 17.1107 22.3605 16.6949 22.5648L15.6988 25.6543C15.6403 25.8365 15.5254 25.9954 15.3708 26.1081C15.2161 26.2209 15.0297 26.2816 14.8383 26.2816H9.82706C9.63569 26.2816 9.44926 26.2209 9.29462 26.1081C9.13998 25.9954 9.02511 25.8365 8.96655 25.6543L7.97406 22.5666C7.55759 22.3629 7.15588 22.1303 6.77186 21.8706L3.59915 22.5557C3.41198 22.5957 3.21695 22.5752 3.04216 22.4972C2.86738 22.4192 2.72185 22.2878 2.62655 22.1218L0.120917 17.7849C0.0252373 17.619 -0.0152895 17.427 0.00517983 17.2366C0.0256492 17.0462 0.106057 16.8673 0.234809 16.7255L2.41322 14.3175C2.38166 13.8577 2.38166 13.3962 2.41322 12.9363L0.234809 10.5283C0.106057 10.3866 0.0256492 10.2076 0.00517983 10.0172C-0.0152895 9.82681 0.0252373 9.63483 0.120917 9.46895L2.62655 5.1302C2.72211 4.96456 2.86775 4.83349 3.04252 4.75585C3.21728 4.67822 3.41217 4.65801 3.59915 4.69813L6.77186 5.38329C7.15512 5.12478 7.55645 4.89157 7.97406 4.68729L8.96835 1.59954C9.02672 1.41794 9.14105 1.25945 9.29497 1.14677C9.44888 1.03409 9.6345 0.972999 9.82526 0.972229H14.8365H14.8383ZM14.1767 2.78004H10.4887L9.46189 5.97445L8.76949 6.31251C8.42911 6.47907 8.10053 6.66873 7.78604 6.88016L7.14608 7.31404L3.86309 6.60538L2.01912 9.80159L4.26985 12.2928L4.21561 13.0593C4.18963 13.4373 4.18963 13.8166 4.21561 14.1946L4.26985 14.9611L2.0155 17.4523L3.86128 20.6485L7.14427 19.9416L7.78424 20.3737C8.09872 20.5851 8.4273 20.7748 8.76769 20.9413L9.46008 21.2794L10.4887 24.4738H14.1803L15.2107 21.2776L15.9013 20.9413C16.2413 20.7752 16.5693 20.5855 16.883 20.3737L17.5211 19.9416L20.8059 20.6485L22.6499 17.4523L20.3974 14.9611L20.4516 14.1946C20.4777 13.816 20.4777 13.4361 20.4516 13.0575L20.3974 12.2909L22.6517 9.80159L20.8059 6.60538L17.5211 7.31042L16.883 6.88016C16.5693 6.66834 16.2413 6.47866 15.9013 6.31251L15.2107 5.97626L14.1785 2.78004H14.1767ZM12.3327 8.20348C13.7711 8.20348 15.1506 8.77488 16.1676 9.79197C17.1847 10.8091 17.7561 12.1885 17.7561 13.6269C17.7561 15.0653 17.1847 16.4448 16.1676 17.4619C15.1506 18.479 13.7711 19.0504 12.3327 19.0504C10.8943 19.0504 9.51484 18.479 8.49774 17.4619C7.48065 16.4448 6.90925 15.0653 6.90925 13.6269C6.90925 12.1885 7.48065 10.8091 8.49774 9.79197C9.51484 8.77488 10.8943 8.20348 12.3327 8.20348ZM12.3327 10.0113C11.3738 10.0113 10.4541 10.3922 9.77606 11.0703C9.098 11.7483 8.71707 12.668 8.71707 13.6269C8.71707 14.5858 9.098 15.5055 9.77606 16.1836C10.4541 16.8616 11.3738 17.2425 12.3327 17.2425C13.2916 17.2425 14.2113 16.8616 14.8893 16.1836C15.5674 15.5055 15.9483 14.5858 15.9483 13.6269C15.9483 12.668 15.5674 11.7483 14.8893 11.0703C14.2113 10.3922 13.2916 10.0113 12.3327 10.0113Z" fill="black"/>
</svg>
