<svg width="17" height="17" viewBox="0 0 17 17" fill="none" xmlns="http://www.w3.org/2000/svg">
<path id="Vector" d="M15.6812 5.125L12.6812 6.625M12.6812 6.625L12.3062 6.8125L8.93115 8.5M12.6812 6.625V9.25M12.6812 6.625L5.55615 2.875M8.93115 8.5L2.18115 5.125M8.93115 8.5V15.625M11.6147 2.0365L13.1147 2.824C14.7279 3.67075 15.5349 4.09375 15.9834 4.855C16.4312 5.6155 16.4312 6.56275 16.4312 8.4565V8.54425C16.4312 10.4372 16.4312 11.3845 15.9834 12.145C15.5349 12.9063 14.7279 13.33 13.1147 14.1768L11.6147 14.9635C10.2977 15.6543 9.63915 16 8.93115 16C8.22315 16 7.56465 15.655 6.24765 14.9635L4.74765 14.176C3.1344 13.3293 2.3274 12.9063 1.8789 12.145C1.43115 11.3845 1.43115 10.4373 1.43115 8.545V8.45725C1.43115 6.5635 1.43115 5.61625 1.8789 4.85575C2.3274 4.0945 3.1344 3.67075 4.74765 2.82475L6.24765 2.03725C7.56465 1.34575 8.22315 1 8.93115 1C9.63915 1 10.2977 1.345 11.6147 2.0365Z" stroke="black" stroke-linecap="round"/>
</svg>
