<svg width="27" height="27" viewBox="0 0 27 27" fill="none" xmlns="http://www.w3.org/2000/svg">
<path id="Vector" d="M13.918 0.711426L13.5668 1.02555L0.769605 13.9641L0 14.736L0.770727 15.5437L11.4285 26.2015L12.2363 26.9722L13.0104 26.2015L25.9456 13.4043L26.2586 13.052V0.711426H13.918ZM14.8648 2.95517H24.0148V12.1052L12.2352 23.8153L3.15471 14.7348L14.8648 2.95517ZM20.6492 5.19892C20.3517 5.19892 20.0663 5.31712 19.8559 5.52751C19.6455 5.7379 19.5273 6.02325 19.5273 6.32079C19.5273 6.61833 19.6455 6.90369 19.8559 7.11408C20.0663 7.32447 20.3517 7.44267 20.6492 7.44267C20.9467 7.44267 21.2321 7.32447 21.4425 7.11408C21.6529 6.90369 21.7711 6.61833 21.7711 6.32079C21.7711 6.02325 21.6529 5.7379 21.4425 5.52751C21.2321 5.31712 20.9467 5.19892 20.6492 5.19892Z" fill="black"/>
</svg>
