<svg width="26" height="24" viewBox="0 0 26 24" fill="none" xmlns="http://www.w3.org/2000/svg">
<g id="Group">
<path id="Vector" d="M21.5886 22.7115H3.57358C2.89102 22.7115 2.23642 22.4404 1.75378 21.9577C1.27114 21.4751 1 20.8205 1 20.1379V8.55683C1 7.87427 1.27114 7.21967 1.75378 6.73703C2.23642 6.25439 2.89102 5.98325 3.57358 5.98325H21.5886C22.2712 5.98325 22.9258 6.25439 23.4084 6.73703C23.8911 7.21967 24.1622 7.87427 24.1622 8.55683V20.1379C24.1622 20.8205 23.8911 21.4751 23.4084 21.9577C22.9258 22.4404 22.2712 22.7115 21.5886 22.7115Z" stroke="black" stroke-width="1.93019"/>
<path id="Vector_2" d="M18.3717 14.9909C18.201 14.9909 18.0374 14.9231 17.9167 14.8024C17.7961 14.6818 17.7283 14.5181 17.7283 14.3475C17.7283 14.1768 17.7961 14.0132 17.9167 13.8925C18.0374 13.7719 18.201 13.7041 18.3717 13.7041C18.5423 13.7041 18.706 13.7719 18.8266 13.8925C18.9473 14.0132 19.0151 14.1768 19.0151 14.3475C19.0151 14.5181 18.9473 14.6818 18.8266 14.8024C18.706 14.9231 18.5423 14.9909 18.3717 14.9909Z" fill="black" stroke="black" stroke-width="1.93019" stroke-linecap="round" stroke-linejoin="round"/>
<path id="Vector_3" d="M20.3019 5.98312V4.18547C20.3017 3.79108 20.211 3.40198 20.0366 3.04823C19.8622 2.69448 19.6088 2.38555 19.2961 2.14528C18.9833 1.90502 18.6195 1.73985 18.2328 1.66254C17.846 1.58523 17.4467 1.59784 17.0656 1.6994L2.91088 5.47355C2.36278 5.61961 1.87828 5.94266 1.53272 6.39248C1.18715 6.8423 0.999874 7.39368 1 7.96092V8.5567" stroke="black" stroke-width="1.93019"/>
</g>
</svg>
