<svg width="16" height="14" viewBox="0 0 16 14" fill="none" xmlns="http://www.w3.org/2000/svg">
<path id="Vector" d="M8.00615 11.7812L7.93115 11.8562L7.84865 11.7812C4.28615 8.54865 1.93115 6.41115 1.93115 4.24365C1.93115 2.74365 3.05615 1.61865 4.55615 1.61865C5.71115 1.61865 6.83615 2.36865 7.23365 3.38865H8.62865C9.02615 2.36865 10.1512 1.61865 11.3062 1.61865C12.8062 1.61865 13.9312 2.74365 13.9312 4.24365C13.9312 6.41115 11.5762 8.54865 8.00615 11.7812ZM11.3062 0.118652C10.0012 0.118652 8.74865 0.726152 7.93115 1.67865C7.11365 0.726152 5.86115 0.118652 4.55615 0.118652C2.24615 0.118652 0.431152 1.92615 0.431152 4.24365C0.431152 7.07115 2.98115 9.38865 6.84365 12.8912L7.93115 13.8812L9.01865 12.8912C12.8812 9.38865 15.4312 7.07115 15.4312 4.24365C15.4312 1.92615 13.6162 0.118652 11.3062 0.118652Z" fill="black"/>
</svg>
